 <svg  version="1.0" xmlns="http://www.w3.org/2000/svg"  width="258.000000pt" height="249.000000pt" viewBox="0 0 258.000000 249.000000"  preserveAspectRatio="xMidYMid meet">  <g transform="translate(0.000000,249.000000) scale(0.100000,-0.100000)" fill="#57e389" stroke="none"> <path d="M1237 2290 c-134 -34 -237 -141 -266 -278 -13 -61 -16 -706 -3 -700 4 2 160 118 345 258 l338 255 -3 110 c-3 97 -6 117 -31 166 -67 137 -241 224 -380 189z m209 -65 c99 -48 161 -150 171 -278 5 -68 4 -74 -21 -104 -14 -17 -68 -62 -119 -100 -50 -37 -101 -76 -112 -85 -68 -58 -342 -258 -353 -258 -11 0 -13 59 -10 313 3 303 4 313 27 364 32 72 107 139 189 169 55 21 162 11 228 -21z"/> <path d="M1945 1977 c-61 -21 -93 -40 -183 -110 l-83 -65 0 -274 0 -273 202 -3 201 -2 80 57 c166 119 209 184 216 323 3 69 0 95 -17 141 -47 124 -167 209 -304 215 -42 2 -88 -2 -112 -9z m185 -33 c94 -28 150 -74 194 -162 23 -45 32 -159 17 -217 -22 -88 -64 -136 -215 -247 l-51 -38 -182 0 c-183 0 -183 0 -184 23 0 18 0 117 1 463 0 14 25 40 78 81 87 67 110 81 167 99 55 17 112 17 175 -2z"/> <path d="M1579 1731 c-31 -25 -180 -143 -332 -261 l-276 -215 336 -3 c185 -1 336 -1 337 0 1 2 -1 120 -4 264 l-5 261 -56 -46z m32 -234 c1 -114 0 -210 -3 -212 -3 -3 -128 -4 -279 -2 -163 1 -265 6 -251 11 12 5 22 12 22 16 0 4 68 60 151 126 83 65 178 141 212 168 34 26 73 56 87 64 14 9 31 23 39 30 7 7 15 11 17 10 1 -2 4 -97 5 -211z"/> <path d="M503 1576 c-58 -19 -104 -49 -153 -102 -66 -72 -85 -123 -85 -229 0 -78 4 -97 28 -146 33 -69 99 -132 175 -167 55 -26 65 -27 260 -30 l202 -4 0 346 0 346 -192 -1 c-129 0 -207 -5 -235 -13z m387 -36 c11 -16 14 -541 4 -577 -6 -23 -9 -23 -175 -23 -144 0 -176 3 -222 20 -75 28 -130 79 -168 155 -29 60 -31 70 -27 148 4 73 8 91 37 137 38 62 59 82 123 115 65 34 131 44 286 42 105 -2 135 -5 142 -17z"/> <path d="M981 1216 c15 -14 464 -367 552 -434 l107 -82 0 237 c0 131 3 248 6 261 l6 22 -338 0 c-185 0 -335 -2 -333 -4z m629 -242 c0 -172 -3 -214 -12 -207 -7 6 -44 34 -82 63 -38 29 -79 61 -90 71 -12 9 -91 72 -176 139 -85 67 -162 128 -170 136 -12 12 24 14 258 14 l272 0 0 -216z"/> <path d="M1677 948 l2 -273 98 -79 c134 -108 185 -131 293 -131 71 0 94 5 142 27 69 32 135 96 168 163 22 43 25 63 25 150 -1 89 -4 106 -27 150 -36 67 -65 97 -185 188 l-102 77 -208 0 -208 0 2 -272z m434 216 c184 -116 256 -208 267 -339 10 -130 -51 -241 -164 -296 -59 -29 -78 -34 -144 -34 -78 1 -156 27 -207 71 -12 11 -51 42 -87 69 -35 28 -66 59 -68 70 -2 11 -2 125 0 253 2 198 5 233 17 228 8 -3 16 -2 19 2 2 4 77 6 166 4 153 -3 164 -4 201 -28z"/> <path d="M962 819 c3 -356 4 -365 27 -424 33 -82 115 -164 194 -193 128 -48 267 -21 360 71 80 79 100 129 104 262 l4 110 -321 250 c-177 138 -332 258 -346 269 l-25 19 3 -364z m111 229 c140 -108 286 -223 327 -258 25 -21 82 -65 127 -98 90 -67 97 -82 87 -187 -10 -117 -73 -209 -178 -262 -68 -34 -178 -36 -247 -4 -70 33 -125 85 -156 149 l-28 57 -2 323 c-2 185 1 322 6 322 5 0 34 -19 64 -42z"/> </g> </svg> 