<?xml version="1.0" encoding="UTF-8" standalone="no" ?>
<!DOCTYPE svg PUBLIC "-//W3C//DTD SVG 1.1//EN" "http://www.w3.org/Graphics/SVG/1.1/DTD/svg11.dtd">
<svg xmlns="http://www.w3.org/2000/svg" xmlns:xlink="http://www.w3.org/1999/xlink" version="1.1" width="1080" height="1080" viewBox="0 0 1080 1080" xml:space="preserve">
<desc>Created with Fabric.js 5.2.4</desc>
<defs>
</defs>
<g transform="matrix(1 0 0 1 540 540)" id="c9b389cf-d798-429c-8dda-0c1fbadab328"  >
</g>
<g transform="matrix(1 0 0 1 540 540)" id="5ab0416f-36f3-441e-9041-0a2fe91bfe3d"  >
<rect style="stroke: none; stroke-width: 1; stroke-dasharray: none; stroke-linecap: butt; stroke-dashoffset: 0; stroke-linejoin: miter; stroke-miterlimit: 4; fill: rgb(255,255,255); fill-rule: nonzero; opacity: 1; visibility: hidden;" vector-effect="non-scaling-stroke"  x="-540" y="-540" rx="0" ry="0" width="1080" height="1080" />
</g>
<g transform="matrix(1 0 0 1 421.54 483.08)"  >
<rect style="stroke: none; stroke-width: 1; stroke-dasharray: none; stroke-linecap: butt; stroke-dashoffset: 0; stroke-linejoin: miter; stroke-miterlimit: 4; fill: rgb(255,255,255); fill-opacity: 0.8; fill-rule: nonzero; opacity: 1;" vector-effect="non-scaling-stroke"  x="-150" y="-50" rx="20" ry="20" width="300" height="100" />
</g>
<g transform="matrix(1 0 0 1 411.14 468.62)"  >
<path style="stroke: none; stroke-width: 1; stroke-dasharray: none; stroke-linecap: butt; stroke-dashoffset: 0; stroke-linejoin: miter; stroke-miterlimit: 4; fill: rgb(89,89,89); fill-rule: nonzero; opacity: 1;" vector-effect="non-scaling-stroke"  transform=" translate(-139.6, -35.54)" d="M 123.128 41.504 L 123.128 44 L 111.752 44 L 111.752 41.72 L 117.512 35.528 C 118.184 34.792 118.672 34.12 118.976 33.512 C 119.296 32.888 119.456 32.272 119.456 31.664 C 119.456 30.896 119.232 30.32 118.784 29.936 C 118.352 29.536 117.712 29.336 116.864 29.336 C 115.344 29.336 113.816 29.92 112.28 31.088 L 111.248 28.832 C 111.92 28.24 112.776 27.768 113.816 27.416 C 114.872 27.048 115.928 26.864 116.984 26.864 C 118.68 26.864 120.024 27.28 121.016 28.112 C 122.008 28.944 122.504 30.064 122.504 31.472 C 122.504 32.448 122.296 33.368 121.88 34.232 C 121.464 35.08 120.76 36.032 119.768 37.088 L 115.616 41.504 L 123.128 41.504 Z M 133.006 33.176 C 134.062 33.176 134.99 33.408 135.79 33.872 C 136.606 34.32 137.23 34.952 137.662 35.768 C 138.11 36.584 138.334 37.52 138.334 38.576 C 138.334 39.696 138.078 40.68 137.566 41.528 C 137.054 42.376 136.326 43.032 135.382 43.496 C 134.454 43.96 133.358 44.192 132.094 44.192 C 131.038 44.192 129.99 44.016 128.95 43.664 C 127.926 43.296 127.078 42.816 126.406 42.224 L 127.438 39.968 C 128.974 41.136 130.542 41.72 132.142 41.72 C 133.198 41.72 134.006 41.456 134.566 40.928 C 135.126 40.4 135.406 39.648 135.406 38.672 C 135.406 37.728 135.118 36.984 134.542 36.44 C 133.982 35.88 133.214 35.6 132.238 35.6 C 131.582 35.6 130.958 35.728 130.366 35.984 C 129.79 36.224 129.27 36.576 128.806 37.04 L 126.958 37.04 L 126.958 27.08 L 137.566 27.08 L 137.566 29.48 L 129.982 29.48 L 129.982 34.04 C 130.798 33.464 131.806 33.176 133.006 33.176 Z M 146.965 44.216 C 144.965 44.216 143.437 43.48 142.381 42.008 C 141.325 40.52 140.797 38.36 140.797 35.528 C 140.797 32.728 141.325 30.592 142.381 29.12 C 143.437 27.648 144.965 26.912 146.965 26.912 C 148.965 26.912 150.493 27.648 151.549 29.12 C 152.605 30.592 153.133 32.728 153.133 35.528 C 153.133 38.344 152.605 40.496 151.549 41.984 C 150.493 43.472 148.965 44.216 146.965 44.216 Z M 146.965 41.792 C 148.053 41.792 148.845 41.296 149.341 40.304 C 149.837 39.296 150.085 37.704 150.085 35.528 C 150.085 33.368 149.837 31.8 149.341 30.824 C 148.845 29.832 148.053 29.336 146.965 29.336 C 145.877 29.336 145.085 29.832 144.589 30.824 C 144.093 31.8 143.845 33.368 143.845 35.528 C 143.845 37.704 144.093 39.296 144.589 40.304 C 145.085 41.296 145.877 41.792 146.965 41.792 Z M 167.955 44 L 164.235 44 L 159.195 38.648 L 159.195 44 L 156.195 44 L 156.195 27.08 L 159.195 27.08 L 159.195 37.4 L 163.923 32.288 L 167.571 32.288 L 162.291 37.904 L 167.955 44 Z" stroke-linecap="round" />
</g>
<g transform="matrix(1 0 0 1 324.54 483.08)"  >
<rect style="stroke: none; stroke-width: 1; stroke-dasharray: none; stroke-linecap: butt; stroke-dashoffset: 0; stroke-linejoin: miter; stroke-miterlimit: 4; fill: rgb(35,189,238); fill-rule: nonzero; opacity: 1;" vector-effect="non-scaling-stroke"  x="-25" y="-25" rx="8" ry="8" width="50" height="50" />
</g>
<g transform="matrix(1 0 0 1 317.66 470.8)" clip-path="url(#CLIPPATH_6)"  >
<clipPath id="CLIPPATH_6" >
	<rect transform="matrix(1 0 0 1 6.87 12.28)" id="clip0" x="-13.75" y="-13.75" rx="0" ry="0" width="27.5" height="27.5" />
</clipPath>
<path style="stroke: none; stroke-width: 1; stroke-dasharray: none; stroke-linecap: butt; stroke-dashoffset: 0; stroke-linejoin: miter; stroke-miterlimit: 4; fill: rgb(255,255,255); fill-rule: nonzero; opacity: 1;" vector-effect="non-scaling-stroke"  transform=" translate(-46.13, -37.72)" d="M 46.125 36.25 C 45.5826 36.25 45.1429 36.6897 45.1429 37.2322 L 45.1429 39.1964 L 47.1071 39.1964 L 47.1071 37.2322 C 47.1071 36.6897 46.6674 36.25 46.125 36.25 Z" stroke-linecap="round" />
</g>
<g transform="matrix(1 0 0 1 331.41 470.8)" clip-path="url(#CLIPPATH_7)"  >
<clipPath id="CLIPPATH_7" >
	<rect transform="matrix(1 0 0 1 -6.87 12.28)" id="clip0" x="-13.75" y="-13.75" rx="0" ry="0" width="27.5" height="27.5" />
</clipPath>
<path style="stroke: none; stroke-width: 1; stroke-dasharray: none; stroke-linecap: butt; stroke-dashoffset: 0; stroke-linejoin: miter; stroke-miterlimit: 4; fill: rgb(255,255,255); fill-rule: nonzero; opacity: 1;" vector-effect="non-scaling-stroke"  transform=" translate(-59.87, -37.72)" d="M 59.875 36.25 C 59.3325 36.25 58.8928 36.6897 58.8928 37.2322 L 58.8928 39.1964 L 60.8571 39.1964 L 60.8571 37.2322 C 60.8571 36.6897 60.4174 36.25 59.875 36.25 Z" stroke-linecap="round" />
</g>
<g transform="matrix(1 0 0 1 324.54 484.55)" clip-path="url(#CLIPPATH_8)"  >
<clipPath id="CLIPPATH_8" >
	<rect transform="matrix(1 0 0 1 0 -1.47)" id="clip0" x="-13.75" y="-13.75" rx="0" ry="0" width="27.5" height="27.5" />
</clipPath>
<path style="stroke: none; stroke-width: 1; stroke-dasharray: none; stroke-linecap: butt; stroke-dashoffset: 0; stroke-linejoin: miter; stroke-miterlimit: 4; fill: rgb(255,255,255); fill-rule: nonzero; opacity: 1;" vector-effect="non-scaling-stroke"  transform=" translate(-53, -51.47)" d="M 63.8036 39.1964 L 60.8571 39.1964 L 60.8571 43.125 C 60.8571 43.6675 60.4174 44.1072 59.875 44.1072 C 59.3325 44.1072 58.8928 43.6675 58.8928 43.125 L 58.8928 39.1964 L 47.1071 39.1964 L 47.1071 43.125 C 47.1071 43.6675 46.6674 44.1072 46.125 44.1072 C 45.5825 44.1072 45.1428 43.6675 45.1428 43.125 L 45.1428 39.1964 L 42.1964 39.1964 C 40.5692 39.1964 39.25 40.5156 39.25 42.1429 L 39.25 60.8036 C 39.25 62.4309 40.5692 63.75 42.1964 63.75 L 63.8036 63.75 C 65.4308 63.75 66.75 62.4309 66.75 60.8036 L 66.75 42.1429 C 66.75 40.5156 65.4308 39.1964 63.8036 39.1964 Z M 64.7857 60.8036 C 64.7857 61.346 64.346 61.7857 63.8035 61.7857 L 42.1964 61.7857 C 41.654 61.7857 41.2143 61.346 41.2143 60.8036 L 41.2143 48.0357 L 64.7857 48.0357 L 64.7857 60.8036 Z" stroke-linecap="round" />
</g>
<g transform="matrix(1 0 0 1 317.66 484.06)" clip-path="url(#CLIPPATH_9)"  >
<clipPath id="CLIPPATH_9" >
	<rect transform="matrix(1 0 0 1 6.87 -0.98)" id="clip0" x="-13.75" y="-13.75" rx="0" ry="0" width="27.5" height="27.5" />
</clipPath>
<path style="stroke: none; stroke-width: 1; stroke-dasharray: none; stroke-linecap: butt; stroke-dashoffset: 0; stroke-linejoin: miter; stroke-miterlimit: 4; fill: rgb(255,255,255); fill-rule: nonzero; opacity: 1;" vector-effect="non-scaling-stroke"  transform=" translate(-46.13, -50.98)" d="M 47.1071 50 L 45.1428 50 C 44.6004 50 44.1607 50.4397 44.1607 50.9822 C 44.1607 51.5246 44.6004 51.9643 45.1428 51.9643 L 47.1071 51.9643 C 47.6495 51.9643 48.0893 51.5246 48.0893 50.9822 C 48.0893 50.4397 47.6495 50 47.1071 50 Z" stroke-linecap="round" />
</g>
<g transform="matrix(1 0 0 1 324.53 484.06)" clip-path="url(#CLIPPATH_10)"  >
<clipPath id="CLIPPATH_10" >
	<rect transform="matrix(1 0 0 1 0 -0.98)" id="clip0" x="-13.75" y="-13.75" rx="0" ry="0" width="27.5" height="27.5" />
</clipPath>
<path style="stroke: none; stroke-width: 1; stroke-dasharray: none; stroke-linecap: butt; stroke-dashoffset: 0; stroke-linejoin: miter; stroke-miterlimit: 4; fill: rgb(255,255,255); fill-rule: nonzero; opacity: 1;" vector-effect="non-scaling-stroke"  transform=" translate(-53, -50.98)" d="M 53.9821 50 L 52.0179 50 C 51.4754 50 51.0357 50.4397 51.0357 50.9822 C 51.0357 51.5246 51.4754 51.9643 52.0179 51.9643 L 53.9821 51.9643 C 54.5246 51.9643 54.9643 51.5246 54.9643 50.9822 C 54.9643 50.4397 54.5246 50 53.9821 50 Z" stroke-linecap="round" />
</g>
<g transform="matrix(1 0 0 1 331.41 484.06)" clip-path="url(#CLIPPATH_11)"  >
<clipPath id="CLIPPATH_11" >
	<rect transform="matrix(1 0 0 1 -6.88 -0.98)" id="clip0" x="-13.75" y="-13.75" rx="0" ry="0" width="27.5" height="27.5" />
</clipPath>
<path style="stroke: none; stroke-width: 1; stroke-dasharray: none; stroke-linecap: butt; stroke-dashoffset: 0; stroke-linejoin: miter; stroke-miterlimit: 4; fill: rgb(255,255,255); fill-rule: nonzero; opacity: 1;" vector-effect="non-scaling-stroke"  transform=" translate(-59.88, -50.98)" d="M 60.8572 50 L 58.8929 50 C 58.3505 50 57.9107 50.4397 57.9107 50.9822 C 57.9107 51.5246 58.3505 51.9643 58.8929 51.9643 L 60.8572 51.9643 C 61.3996 51.9643 61.8393 51.5246 61.8393 50.9822 C 61.8393 50.4397 61.3995 50 60.8572 50 Z" stroke-linecap="round" />
</g>
<g transform="matrix(1 0 0 1 317.66 487.99)" clip-path="url(#CLIPPATH_12)"  >
<clipPath id="CLIPPATH_12" >
	<rect transform="matrix(1 0 0 1 6.87 -4.91)" id="clip0" x="-13.75" y="-13.75" rx="0" ry="0" width="27.5" height="27.5" />
</clipPath>
<path style="stroke: none; stroke-width: 1; stroke-dasharray: none; stroke-linecap: butt; stroke-dashoffset: 0; stroke-linejoin: miter; stroke-miterlimit: 4; fill: rgb(255,255,255); fill-rule: nonzero; opacity: 1;" vector-effect="non-scaling-stroke"  transform=" translate(-46.13, -54.91)" d="M 47.1071 53.9286 L 45.1428 53.9286 C 44.6004 53.9286 44.1607 54.3683 44.1607 54.9107 C 44.1607 55.4532 44.6004 55.8929 45.1428 55.8929 L 47.1071 55.8929 C 47.6495 55.8929 48.0893 55.4532 48.0893 54.9107 C 48.0893 54.3683 47.6495 53.9286 47.1071 53.9286 Z" stroke-linecap="round" />
</g>
<g transform="matrix(1 0 0 1 324.53 487.99)" clip-path="url(#CLIPPATH_13)"  >
<clipPath id="CLIPPATH_13" >
	<rect transform="matrix(1 0 0 1 0 -4.91)" id="clip0" x="-13.75" y="-13.75" rx="0" ry="0" width="27.5" height="27.5" />
</clipPath>
<path style="stroke: none; stroke-width: 1; stroke-dasharray: none; stroke-linecap: butt; stroke-dashoffset: 0; stroke-linejoin: miter; stroke-miterlimit: 4; fill: rgb(255,255,255); fill-rule: nonzero; opacity: 1;" vector-effect="non-scaling-stroke"  transform=" translate(-53, -54.91)" d="M 53.9821 53.9286 L 52.0179 53.9286 C 51.4754 53.9286 51.0357 54.3683 51.0357 54.9107 C 51.0357 55.4532 51.4754 55.8929 52.0179 55.8929 L 53.9821 55.8929 C 54.5246 55.8929 54.9643 55.4532 54.9643 54.9107 C 54.9643 54.3683 54.5246 53.9286 53.9821 53.9286 Z" stroke-linecap="round" />
</g>
<g transform="matrix(1 0 0 1 331.41 487.99)" clip-path="url(#CLIPPATH_14)"  >
<clipPath id="CLIPPATH_14" >
	<rect transform="matrix(1 0 0 1 -6.88 -4.91)" id="clip0" x="-13.75" y="-13.75" rx="0" ry="0" width="27.5" height="27.5" />
</clipPath>
<path style="stroke: none; stroke-width: 1; stroke-dasharray: none; stroke-linecap: butt; stroke-dashoffset: 0; stroke-linejoin: miter; stroke-miterlimit: 4; fill: rgb(255,255,255); fill-rule: nonzero; opacity: 1;" vector-effect="non-scaling-stroke"  transform=" translate(-59.88, -54.91)" d="M 60.8572 53.9286 L 58.8929 53.9286 C 58.3505 53.9286 57.9107 54.3683 57.9107 54.9107 C 57.9107 55.4532 58.3505 55.8929 58.8929 55.8929 L 60.8572 55.8929 C 61.3996 55.8929 61.8393 55.4532 61.8393 54.9107 C 61.8393 54.3683 61.3995 53.9286 60.8572 53.9286 Z" stroke-linecap="round" />
</g>
<g transform="matrix(1 0 0 1 317.66 491.91)" clip-path="url(#CLIPPATH_15)"  >
<clipPath id="CLIPPATH_15" >
	<rect transform="matrix(1 0 0 1 6.87 -8.84)" id="clip0" x="-13.75" y="-13.75" rx="0" ry="0" width="27.5" height="27.5" />
</clipPath>
<path style="stroke: none; stroke-width: 1; stroke-dasharray: none; stroke-linecap: butt; stroke-dashoffset: 0; stroke-linejoin: miter; stroke-miterlimit: 4; fill: rgb(255,255,255); fill-rule: nonzero; opacity: 1;" vector-effect="non-scaling-stroke"  transform=" translate(-46.13, -58.84)" d="M 47.1071 57.8571 L 45.1428 57.8571 C 44.6004 57.8571 44.1607 58.2968 44.1607 58.8393 C 44.1607 59.3817 44.6004 59.8214 45.1428 59.8214 L 47.1071 59.8214 C 47.6495 59.8214 48.0893 59.3817 48.0893 58.8392 C 48.0893 58.2968 47.6495 57.8571 47.1071 57.8571 Z" stroke-linecap="round" />
</g>
<g transform="matrix(1 0 0 1 324.53 491.91)" clip-path="url(#CLIPPATH_16)"  >
<clipPath id="CLIPPATH_16" >
	<rect transform="matrix(1 0 0 1 0 -8.84)" id="clip0" x="-13.75" y="-13.75" rx="0" ry="0" width="27.5" height="27.5" />
</clipPath>
<path style="stroke: none; stroke-width: 1; stroke-dasharray: none; stroke-linecap: butt; stroke-dashoffset: 0; stroke-linejoin: miter; stroke-miterlimit: 4; fill: rgb(255,255,255); fill-rule: nonzero; opacity: 1;" vector-effect="non-scaling-stroke"  transform=" translate(-53, -58.84)" d="M 53.9821 57.8571 L 52.0179 57.8571 C 51.4754 57.8571 51.0357 58.2968 51.0357 58.8393 C 51.0357 59.3817 51.4754 59.8214 52.0179 59.8214 L 53.9821 59.8214 C 54.5246 59.8214 54.9643 59.3817 54.9643 58.8393 C 54.9643 58.2968 54.5246 57.8571 53.9821 57.8571 Z" stroke-linecap="round" />
</g>
<g transform="matrix(1 0 0 1 331.41 491.91)" clip-path="url(#CLIPPATH_17)"  >
<clipPath id="CLIPPATH_17" >
	<rect transform="matrix(1 0 0 1 -6.88 -8.84)" id="clip0" x="-13.75" y="-13.75" rx="0" ry="0" width="27.5" height="27.5" />
</clipPath>
<path style="stroke: none; stroke-width: 1; stroke-dasharray: none; stroke-linecap: butt; stroke-dashoffset: 0; stroke-linejoin: miter; stroke-miterlimit: 4; fill: rgb(255,255,255); fill-rule: nonzero; opacity: 1;" vector-effect="non-scaling-stroke"  transform=" translate(-59.88, -58.84)" d="M 60.8572 57.8571 L 58.8929 57.8571 C 58.3505 57.8571 57.9107 58.2968 57.9107 58.8393 C 57.9107 59.3817 58.3505 59.8214 58.8929 59.8214 L 60.8572 59.8214 C 61.3996 59.8214 61.8393 59.3817 61.8393 58.8393 C 61.8393 58.2968 61.3995 57.8571 60.8572 57.8571 Z" stroke-linecap="round" />
</g>
<g transform="matrix(0.7 0 0 0.7 418.94 501.24)" style="" id="0683ba42-3a4c-44d5-944e-9d879ef9f3a8"  >
		<text xml:space="preserve" font-family="Lato" font-size="40" font-style="normal" font-weight="400" style="stroke: none; stroke-width: 1; stroke-dasharray: none; stroke-linecap: butt; stroke-dashoffset: 0; stroke-linejoin: miter; stroke-miterlimit: 4; fill: rgb(76,76,76); fill-rule: nonzero; opacity: 1; white-space: pre;" ><tspan x="-57.26" y="12.57" >Pasien</tspan></text>
</g>
</svg>