<?xml version="1.0" encoding="UTF-8" standalone="no"?>
<!-- Created with Inkscape (http://www.inkscape.org/) -->

<svg
   width="54.291107mm"
   height="17.182068mm"
   viewBox="0 0 54.291107 17.182068"
   version="1.1"
   id="svg1"
   xml:space="preserve"
   xmlns:inkscape="http://www.inkscape.org/namespaces/inkscape"
   xmlns:sodipodi="http://sodipodi.sourceforge.net/DTD/sodipodi-0.dtd"
   xmlns="http://www.w3.org/2000/svg"
   xmlns:svg="http://www.w3.org/2000/svg"><sodipodi:namedview
     id="namedview1"
     pagecolor="#ffffff"
     bordercolor="#000000"
     borderopacity="0.25"
     inkscape:showpageshadow="2"
     inkscape:pageopacity="0.0"
     inkscape:pagecheckerboard="0"
     inkscape:deskcolor="#d1d1d1"
     inkscape:document-units="mm"
     inkscape:export-bgcolor="#ffffff44"
     inkscape:zoom="4"
     inkscape:cx="192.5"
     inkscape:cy="501"
     inkscape:window-width="1900"
     inkscape:window-height="1032"
     inkscape:window-x="0"
     inkscape:window-y="0"
     inkscape:window-maximized="1"
     inkscape:current-layer="g2"><inkscape:page
       x="0"
       y="0"
       width="54.291107"
       height="17.182068"
       id="page2"
       margin="0"
       bleed="0" /></sodipodi:namedview><defs
     id="defs1"><filter
       id="filter0_b"
       x="-20"
       y="-20"
       width="340"
       height="140"
       filterUnits="userSpaceOnUse"
       color-interpolation-filters="sRGB"><feFlood
         flood-opacity="0"
         result="BackgroundImageFix"
         id="feFlood14" /><feGaussianBlur
         in="BackgroundImage"
         stdDeviation="10"
         id="feGaussianBlur14" /><feComposite
         in2="SourceAlpha"
         operator="in"
         result="effect1_backgroundBlur"
         id="feComposite14" /><feBlend
         mode="normal"
         in="SourceGraphic"
         in2="effect1_backgroundBlur"
         result="shape"
         id="feBlend14" /></filter><rect
       x="354"
       y="538.5"
       width="133.01485"
       height="9.5535469"
       id="rect10" /><rect
       x="354"
       y="538.5"
       width="109.46106"
       height="16.845943"
       id="rect11" /><rect
       x="354"
       y="538.5"
       width="124.76813"
       height="19.522942"
       id="rect15" /></defs><g
     inkscape:label="Layer 1"
     inkscape:groupmode="layer"
     id="layer1"
     transform="translate(-25.782779,-124.01713)"><g
       style="fill:none"
       id="g2"
       transform="matrix(0.26458333,0,0,0.26458333,62.078032,135.29562)"><g
         filter="url(#filter0_b)"
         id="g7"
         transform="matrix(0.60351397,0,0,0.4638577,-125.10862,-33.350269)"
         inkscape:export-filename="konsul.svg"
         inkscape:export-xdpi="95.915237"
         inkscape:export-ydpi="95.915237"><rect
           width="343.83487"
           height="116.85371"
           rx="22.922327"
           fill="#ffffff"
           fill-opacity="0.8"
           id="rect7"
           x="-1.1408089"
           y="-5.2765379"
           style="stroke-width:1.15728" /></g><rect
         x="-125.89928"
         y="-39.346718"
         width="50"
         height="50"
         rx="8"
         fill="#23bdee"
         id="rect8" /><text
         xml:space="preserve"
         transform="matrix(0.91493279,0,0,0.92322115,-394.72213,-514.3368)"
         id="text9"
         style="font-size:8.70447px;line-height:1;text-align:start;letter-spacing:0px;writing-mode:lr-tb;direction:ltr;white-space:pre;shape-inside:url(#rect10);fill:#464646;fill-opacity:1;stroke-width:1.00157;stroke-dasharray:none"
         x="248.85922"
         y="0"><tspan
           x="354"
           y="545.11336"
           id="tspan2"><tspan
             style="font-family:Carlito;-inkscape-font-specification:Carlito"
             id="tspan1">Dokter Spesialis | 10:00 - 16:00 WITA</tspan></tspan></text><text
         xml:space="preserve"
         transform="matrix(0.91493279,0,0,0.92322115,-393.6675,-535.55153)"
         id="text10"
         style="font-size:14.6667px;text-align:start;writing-mode:lr-tb;direction:ltr;white-space:pre;shape-inside:url(#rect11);fill:#4c4c4c;fill-opacity:1;stroke-width:1.00157;stroke-dasharray:none"><tspan
           x="354"
           y="551.47659"
           id="tspan4"><tspan
             style="font-weight:bold;font-family:Carlito;-inkscape-font-specification:'Carlito Bold'"
             id="tspan3">Jadwal Konsultasi</tspan></tspan></text><g
         style="fill:none"
         id="g13"
         transform="matrix(1.7683646,0,0,1.7683646,-122.2457,-35.198169)"><path
           d="M 7.75,2.5 C 7.75,2.08579 7.41421,1.75 7,1.75 6.58579,1.75 6.25,2.08579 6.25,2.5 V 4.07926 C 4.81067,4.19451 3.86577,4.47737 3.17157,5.17157 2.47737,5.86577 2.19451,6.81067 2.07926,8.25 H 21.9207 C 21.8055,6.81067 21.5226,5.86577 20.8284,5.17157 20.1342,4.47737 19.1893,4.19451 17.75,4.07926 V 2.5 C 17.75,2.08579 17.4142,1.75 17,1.75 16.5858,1.75 16.25,2.08579 16.25,2.5 V 4.0129 C 15.5847,4 14.839,4 14,4 H 10 C 9.16097,4 8.41527,4 7.75,4.0129 Z"
           fill="#1c274c"
           id="path1" /><path
           fill-rule="evenodd"
           clip-rule="evenodd"
           d="M 2,12 C 2,11.161 2,10.4153 2.0129,9.75 H 21.9871 C 22,10.4153 22,11.161 22,12 v 2 c 0,3.7712 0,5.6569 -1.1716,6.8284 C 19.6569,22 17.7712,22 14,22 H 10 C 6.22876,22 4.34315,22 3.17157,20.8284 2,19.6569 2,17.7712 2,14 Z m 15,2 c 0.5523,0 1,-0.4477 1,-1 0,-0.5523 -0.4477,-1 -1,-1 -0.5523,0 -1,0.4477 -1,1 0,0.5523 0.4477,1 1,1 z m 0,4 c 0.5523,0 1,-0.4477 1,-1 0,-0.5523 -0.4477,-1 -1,-1 -0.5523,0 -1,0.4477 -1,1 0,0.5523 0.4477,1 1,1 z m -4,-5 c 0,0.5523 -0.4477,1 -1,1 -0.5523,0 -1,-0.4477 -1,-1 0,-0.5523 0.4477,-1 1,-1 0.5523,0 1,0.4477 1,1 z m 0,4 c 0,0.5523 -0.4477,1 -1,1 -0.5523,0 -1,-0.4477 -1,-1 0,-0.5523 0.4477,-1 1,-1 0.5523,0 1,0.4477 1,1 z M 7,14 c 0.55228,0 1,-0.4477 1,-1 0,-0.5523 -0.44772,-1 -1,-1 -0.55228,0 -1,0.4477 -1,1 0,0.5523 0.44772,1 1,1 z m 0,4 c 0.55228,0 1,-0.4477 1,-1 0,-0.5523 -0.44772,-1 -1,-1 -0.55228,0 -1,0.4477 -1,1 0,0.5523 0.44772,1 1,1 z"
           fill="#1c274c"
           id="path2" /></g><g
         id="g16"
         transform="matrix(1.089521,0,0,1.089521,4.7554513,-13.37165)"><rect
           style="fill:#ff5555;fill-opacity:1;stroke-width:1.01566;stroke-dasharray:none"
           id="rect13"
           width="59.240856"
           height="16.208632"
           x="-53.121067"
           y="11.140188"
           rx="2.4952683" /><text
           xml:space="preserve"
           transform="matrix(0.43806749,0,0,0.44203593,-204.15967,-222.42441)"
           id="text14"
           style="font-size:14.6667px;text-align:start;writing-mode:lr-tb;direction:ltr;white-space:pre;shape-inside:url(#rect15);fill:#464646;fill-opacity:1;stroke-width:1.00157;stroke-dasharray:none"><tspan
             x="354"
             y="551.47659"
             id="tspan6"><tspan
               style="font-weight:bold;font-family:Carlito;-inkscape-font-specification:'Carlito Bold';fill:#f9f9f9"
               id="tspan5">DAFTAR SEKARANG</tspan></tspan></text></g></g></g></svg>
